<svg xmlns="http://www.w3.org/2000/svg" width="1600" height="460" viewBox="0 0 1600 460">
  <rect width="100%" height="100%" rx="36" fill="#07090D"/>
  <svg x="70" y="50" width="340" height="340" viewBox="0 0 512 512">
  <rect x="16" y="16" width="480" height="480" rx="112" fill="#07090D"/>
  <circle cx="256" cy="256" r="154" fill="none" stroke="#334154" stroke-width="18" opacity="0.52"/>
  <circle cx="256" cy="256" r="100" fill="none" stroke="#334154" stroke-width="15" opacity="0.72"/>
  <path d="M127 322 A154 154 0 0 1 365 145" fill="none" stroke="#C8FF3D" stroke-width="27" stroke-linecap="round"/>
  <path d="M161 192 C205 130 316 143 332 205 C347 260 280 274 231 286 C187 297 168 330 191 360 C220 398 300 387 344 332" fill="none" stroke="#33D6FF" stroke-width="29" stroke-linecap="round" stroke-linejoin="round"/>
  <circle cx="161" cy="192" r="24" fill="#F4F7FA"/>
  <circle cx="256" cy="280" r="20" fill="#C8FF3D"/>
  <circle cx="344" cy="332" r="24" fill="#F4F7FA"/>
  <path d="M256 89 V128 M256 384 V423 M89 256 H128 M384 256 H423" stroke="#F4F7FA" stroke-width="14" stroke-linecap="round" opacity="0.8"/>
</svg>
  <text x="470" y="142" font-family="Inter, Arial, sans-serif" font-weight="700" font-size="50" letter-spacing="16" fill="#33D6FF">COD3AI</text>
  <text x="470" y="268" font-family="Space Grotesk, Inter, Arial, sans-serif" font-weight="800" font-size="118" letter-spacing="2" fill="#F4F7FA">
    <tspan>S</tspan><tspan fill="#C8FF3D">1T3</tspan><tspan>SCOUT</tspan>
  </text>
  
</svg>